<svg height="100%" width="100%" id="bg-svg" viewBox="0 0 1440 600" xmlns="http://www.w3.org/2000/svg" class="transition duration-300 ease-in-out delay-150"><defs><linearGradient id="gradient"><stop offset="5%" stop-color="#43d19dff"></stop><stop offset="95%" stop-color="#32b1dbff"></stop></linearGradient></defs><path d="M 0,600 C 0,600 0,300 0,300 C 53.78093476384265,257.4928597854236 107.5618695276853,214.98571957084718 158,215 C 208.4381304723147,215.01428042915282 255.5334566531015,257.54998150203477 311,301 C 366.4665433468985,344.45001849796523 430.3043038599087,388.8143544210137 484,360 C 537.6956961400913,331.1856455789863 581.2493279072636,229.1926008139105 637,237 C 692.7506720927364,244.8073991860895 760.6983845110373,362.4152423233444 822,386 C 883.3016154889627,409.5847576766556 937.9571340485877,339.1464298927118 983,314 C 1028.0428659514123,288.8535701072882 1063.473079294611,308.9990381058084 1110,335 C 1156.526920705389,361.0009618941916 1214.1505487729682,392.8574176840548 1271,388 C 1327.8494512270318,383.1425823159452 1383.9247256135159,341.5712911579726 1440,300 C 1440,300 1440,600 1440,600 Z" stroke="none" stroke-width="0" fill="url(#gradient)" class="transition-all duration-300 ease-in-out delay-150"></path></svg>